<svg width="256" height="256" viewBox="0 0 256 256" fill="none" xmlns="http://www.w3.org/2000/svg">
    <rect width="256" height="256" rx="48" fill="white"/>
    <path d="M222.172 62H215.078C213.867 61.999 212.686 62.3738 211.699 63.0722C210.712 63.7707 209.967 64.7582 209.57 65.8973L165.326 192.282C165.019 193.157 164.927 194.093 165.058 195.011C165.189 195.929 165.538 196.802 166.078 197.558C166.617 198.314 167.33 198.93 168.158 199.355C168.985 199.779 169.903 200.001 170.834 200H177.925C179.135 200 180.315 199.625 181.302 198.928C182.288 198.23 183.032 197.243 183.43 196.106L227.674 69.7207C227.981 68.8455 228.073 67.9099 227.942 66.9921C227.812 66.0743 227.462 65.201 226.923 64.4452C226.384 63.6893 225.671 63.0731 224.844 62.6477C224.017 62.2223 223.103 62.0002 222.172 62Z" fill="#9580FF"/>
    <path d="M63.6708 101.639V95.8462C63.6708 94.2977 63.0576 92.8126 61.9661 91.7174C60.8745 90.6222 59.3939 90.0065 57.8497 90.0057H46.7087V84.6381C46.6909 78.3634 48.1054 74.6045 49.3776 73.2366L49.4369 73.1622C50.3048 72.305 51.3947 71.7085 52.5832 71.4404C56.7013 70.776 60.8669 70.4528 65.0379 70.474H67.1789C68.723 70.4732 70.2036 69.8575 71.2952 68.7623C72.3868 67.6671 73 66.1819 73 64.6334V59.3996C73.0025 58.0439 72.5336 56.7297 71.6742 55.6832C70.8147 54.6367 69.6183 53.9234 68.2909 53.6661C67.5852 53.5293 66.8082 53.3896 65.9186 53.2557C64.8184 53.0862 59.0478 53.003 57.912 53H57.832C48.4524 53 40.4666 55.1977 35.117 60.9519C29.8919 66.724 28 74.89 28 84.8105V194.165C28.0015 195.707 28.6109 197.186 29.6953 198.279C30.7797 199.372 32.251 199.991 33.7885 200H40.8847C41.6492 200.001 42.4064 199.85 43.113 199.558C43.8196 199.265 44.4617 198.835 45.0025 198.293C45.5434 197.751 45.9725 197.108 46.2653 196.4C46.558 195.691 46.7087 194.932 46.7087 194.165V107.477H57.8468C58.6113 107.477 59.3685 107.326 60.0749 107.033C60.7813 106.74 61.4232 106.31 61.9638 105.768C62.5044 105.226 62.9332 104.582 63.2256 103.874C63.518 103.165 63.6683 102.406 63.6679 101.639" fill="#353531"/>
    <path d="M137.934 95.3422C131.013 91.5944 123.2 89.758 115.315 90.0256C107.543 89.8322 99.8271 91.3822 92.7468 94.5592C86.4004 97.5227 81.0609 102.246 77.3772 108.154L77.3505 108.192C76.8567 108.98 76.5959 109.889 76.5974 110.817C76.602 111.903 76.9464 112.96 77.5835 113.845C78.2206 114.729 79.119 115.396 80.1552 115.755L85.8684 117.767C87.4566 118.322 89.1798 118.377 90.8008 117.924C92.4218 117.471 93.8609 116.532 94.9201 115.236C95.4602 114.583 96.0363 113.959 96.6456 113.368C100.384 109.779 105.931 107.664 114.565 107.632C118.28 107.544 121.981 108.114 125.493 109.315C128.01 110.212 130.237 111.76 131.942 113.799C135.176 117.726 137.213 123.793 137.403 132.491C129.084 132.62 121.689 132.963 115.327 133.552C107.31 134.259 99.4044 135.887 91.7684 138.402H91.7418L91.6736 138.42C84.6896 140.304 78.4076 144.15 73.5881 149.493C69.0986 155.08 66.7692 162.067 67.0181 169.199V169.387C66.8857 175.619 68.6074 181.753 71.9693 187.025C75.3381 192.083 80.153 196.033 85.8002 198.374C92.0928 200.913 98.8467 202.143 105.641 201.987C110.866 201.925 116.041 200.967 120.936 199.157C126.441 197.153 131.534 194.181 135.968 190.383C136.858 189.647 137.667 188.858 138.467 188.037C138.987 191.397 140.139 194.631 141.865 197.571C142.383 198.411 143.112 199.105 143.981 199.586C144.85 200.066 145.83 200.316 146.825 200.312L150.232 200.274C151.764 200.257 153.227 199.642 154.304 198.565C155.381 197.487 155.986 196.033 155.987 194.518V132.834C156.156 125.268 154.716 117.752 151.759 110.773C148.921 104.31 144.078 98.9067 137.934 95.3422ZM133.193 168.36C130.399 173.182 126.451 177.251 121.695 180.21C117.06 183.125 111.667 184.639 106.175 184.568C100.625 184.955 95.1147 183.398 90.6092 180.169C89.0457 178.916 87.7991 177.32 86.9684 175.507C86.1069 173.421 85.6832 171.185 85.7232 168.932C85.6815 166.286 86.3517 163.676 87.6651 161.369C89.4192 158.814 91.9083 156.838 94.8104 155.698C100.583 153.301 106.674 151.734 112.896 151.044C121.037 149.985 129.236 149.416 137.448 149.34V152.903C137.467 158.338 136 163.677 133.202 168.354" fill="#353531"/>
</svg>
