<svg width="16" height="16" viewBox="0 0 16 16" fill="none" xmlns="http://www.w3.org/2000/svg">
    <path d="M15.5357 4.75687H14.9727C14.8766 4.75694 14.7829 4.78692 14.7046 4.84265C14.6263 4.89838 14.5673 4.97709 14.5357 5.06787L11.0227 15.1469C10.9985 15.2166 10.9913 15.2911 11.0017 15.3642C11.0121 15.4373 11.0399 15.5069 11.0827 15.567C11.1254 15.6272 11.182 15.6763 11.2476 15.7102C11.3131 15.7441 11.3859 15.7618 11.4597 15.7619H12.0227C12.1188 15.7618 12.2125 15.7318 12.2909 15.6761C12.3692 15.6204 12.4282 15.5416 12.4597 15.4509L15.9727 5.37186C15.9972 5.30206 16.0045 5.22743 15.9942 5.15421C15.9839 5.08098 15.9562 5.01127 15.9134 4.95096C15.8706 4.89064 15.814 4.84147 15.7483 4.80753C15.6826 4.77358 15.6097 4.75586 15.5357 4.75586" fill="#9580FF"/>
    <path d="M2.83773 7.96127V7.50226C2.83773 7.44146 2.82575 7.38125 2.80248 7.32507C2.77922 7.2689 2.74511 7.21786 2.70212 7.17486C2.65913 7.13187 2.60809 7.09776 2.55191 7.07449C2.49574 7.05122 2.43553 7.03927 2.37473 7.03927H1.48973V6.61325C1.45931 6.29809 1.53384 5.98171 1.70173 5.71326V5.70727C1.77061 5.63912 1.85722 5.59164 1.95173 5.57025C2.27873 5.51752 2.60951 5.49177 2.94073 5.49325H3.11073C3.23352 5.49325 3.35129 5.44449 3.43812 5.35766C3.52495 5.27084 3.57373 5.15307 3.57373 5.03027V4.61526C3.57407 4.50775 3.5369 4.40349 3.46863 4.32043C3.40037 4.23738 3.30527 4.18075 3.19973 4.16028C3.14373 4.14928 3.08073 4.13826 3.01173 4.12726C2.92473 4.11326 2.46573 4.10727 2.37573 4.10727H2.37373C2.04543 4.08079 1.71522 4.12314 1.40423 4.23163C1.09324 4.34011 0.808328 4.51234 0.567729 4.73727C0.149128 5.27502 -0.0531305 5.94993 0.000728933 6.62927V15.3003C0.000728933 15.4231 0.0495092 15.5408 0.136339 15.6277C0.223168 15.7145 0.340934 15.7633 0.463729 15.7633H1.02673C1.14952 15.7633 1.26729 15.7145 1.35412 15.6277C1.44095 15.5408 1.48973 15.4231 1.48973 15.3003V8.42627H2.37573C2.49852 8.42627 2.61629 8.37748 2.70312 8.29065C2.78995 8.20382 2.83873 8.08605 2.83873 7.96326" fill="#9580FF"/>
    <path d="M8.70984 7.32264C8.15899 7.02145 7.53727 6.87396 6.90984 6.89564C6.29163 6.88039 5.67799 7.00516 5.11484 7.26063C4.60988 7.49877 4.18499 7.87851 3.89184 8.35365C3.85256 8.41702 3.83178 8.4901 3.83184 8.56465C3.83173 8.65257 3.85903 8.73832 3.90993 8.81001C3.96083 8.8817 4.0328 8.93575 4.11584 8.96464L4.56984 9.12663C4.69581 9.1717 4.83265 9.17669 4.96157 9.14088C5.09048 9.10507 5.20516 9.03024 5.28984 8.92665C5.33272 8.87418 5.37846 8.82411 5.42684 8.77665C5.62217 8.60955 5.84866 8.48276 6.09324 8.40364C6.33781 8.32451 6.59564 8.29462 6.85184 8.31566C7.14723 8.30853 7.44153 8.35423 7.72084 8.45064C7.92109 8.52283 8.09827 8.64754 8.23384 8.81166C8.54021 9.25 8.69281 9.77745 8.66784 10.3117C8.00584 10.3217 7.41884 10.3496 6.91184 10.3966C6.27415 10.4535 5.64525 10.5844 5.03784 10.7866H5.02884C4.47357 10.9381 3.97409 11.2473 3.59084 11.6766C3.23351 12.1259 3.04808 12.6879 3.06784 13.2616V13.2767C3.05743 13.7777 3.19443 14.2708 3.46184 14.6947C3.72968 15.1015 4.11262 15.4193 4.56184 15.6076C5.06227 15.812 5.59943 15.911 6.13984 15.8986C6.55529 15.8934 6.9667 15.8162 7.35584 15.6706C7.79527 15.5099 8.20186 15.2707 8.55584 14.9646C8.62584 14.9056 8.69084 14.8417 8.75584 14.7767C8.79703 15.047 8.88862 15.3071 9.02584 15.5437C9.06716 15.6112 9.12524 15.667 9.19444 15.7055C9.26364 15.7441 9.34163 15.7641 9.42084 15.7637H9.69184C9.81376 15.7623 9.93025 15.713 10.016 15.6263C10.1017 15.5396 10.1498 15.4226 10.1498 15.3006V10.3327C10.1634 9.72431 10.0489 9.11989 9.81384 8.55864C9.58801 8.03881 9.2028 7.60423 8.71384 7.31764M8.33684 13.1907C8.11474 13.5783 7.8009 13.9056 7.42284 14.1437C7.05438 14.3781 6.62555 14.5001 6.18884 14.4946C5.74753 14.5259 5.30929 14.4009 4.95084 14.1416C4.82633 14.0409 4.72703 13.9125 4.66084 13.7666C4.59195 13.5989 4.55793 13.4189 4.56084 13.2377C4.55767 13.0248 4.61116 12.815 4.71584 12.6297C4.8553 12.4243 5.05315 12.2654 5.28384 12.1737C5.74287 11.981 6.22711 11.8551 6.72184 11.7996C7.36946 11.7145 8.02166 11.6687 8.67484 11.6626V11.9487C8.67621 12.3856 8.55942 12.8147 8.33684 13.1907Z" fill="#9580FF"/>
</svg>
