<svg width="200" height="200" viewBox="0 0 200 200" fill="none" xmlns="http://www.w3.org/2000/svg">
    <path fill-rule="evenodd" clip-rule="evenodd" d="M24.1458 34.8375C70.6333 -19.2667 156.833 -8.58332 189.054 54.6125C166.371 54.6208 130.85 54.6083 111.612 54.6125C97.6583 54.6167 88.6541 54.3 78.8958 59.4375C67.425 65.475 58.7708 76.6667 55.75 89.8125L24.1458 34.8333V34.8375Z" fill="#EA4335"/>
    <path fill-rule="evenodd" clip-rule="evenodd" d="M66.7292 100C66.7292 118.333 81.6417 133.25 99.9667 133.25C118.292 133.25 133.2 118.333 133.2 100C133.2 81.6625 118.292 66.7417 99.9667 66.7417C81.6417 66.7417 66.7292 81.6625 66.7292 100Z" fill="#4285F4"/>
    <path fill-rule="evenodd" clip-rule="evenodd" d="M112.867 143.525C94.2125 149.067 72.3792 142.921 60.4209 122.275C45.6517 96.6726 30.917 71.0503 16.2167 45.4083C-22.175 104.25 10.9167 184.433 80.6084 198.125L112.867 143.525Z" fill="#34A853"/>
    <path fill-rule="evenodd" clip-rule="evenodd" d="M130.837 66.7417C146.379 81.1917 149.762 104.592 139.237 122.738C131.308 136.404 106 179.117 93.7375 199.8C165.542 204.229 217.892 133.85 194.25 66.7417H130.837Z" fill="#FBBC05"/>
</svg>
