<svg width="200" height="200" viewBox="0 0 200 200" fill="none" xmlns="http://www.w3.org/2000/svg">
    <path d="M192.258 67.0742C187.94 56.9849 179.169 46.092 172.287 42.6511C177.891 53.2967 181.129 63.9767 182.372 71.9368C182.372 71.9368 182.372 71.9986 182.393 72.1017C171.136 44.9039 152.045 33.9354 136.456 10.055C135.66 8.85303 134.872 7.65111 134.105 6.3599C133.712 5.70389 133.347 5.03253 133.011 4.34753C132.331 3.08973 131.811 1.75672 131.463 0.377753C131.422 0.329565 131.364 0.297775 131.3 0.288467C131.239 0.27272 131.176 0.27272 131.115 0.288467C131.097 0.295167 131.08 0.304428 131.065 0.31594C131.044 0.31594 131.016 0.343413 130.994 0.350281L131.037 0.302203C106.023 14.4986 97.5426 40.7555 96.7613 53.9011C86.7637 54.5646 77.2061 58.1314 69.3395 64.1346C68.5166 63.4598 67.6559 62.8292 66.7613 62.2459C64.4929 54.5491 64.3972 46.4053 66.4844 38.6607C56.2571 43.18 48.3025 50.3091 42.5213 56.614H42.4716C38.5227 51.7651 38.7997 35.783 39.027 32.4451C38.9772 32.239 36.0866 33.908 35.7102 34.1621C32.2301 36.5659 28.9701 39.272 25.9801 42.239C22.5782 45.5841 19.4708 49.1978 16.6903 53.0426C10.286 61.8407 5.74569 71.7774 3.33094 82.2802L3.196 82.919C3.01134 83.7637 2.33662 88.0151 2.21588 88.9423V89.1484C1.3352 93.544 0.788325 97.9945 0.575257 102.473V102.96C0.568155 156.25 45.142 199.451 100.128 199.451C149.375 199.451 190.256 164.801 198.267 119.286C198.437 118.049 198.572 116.813 198.722 115.563C200.703 99.011 198.501 81.6209 192.258 67.0742ZM77.5142 142.61C77.9758 142.816 78.4162 143.056 78.892 143.269L78.963 143.31C78.4771 143.083 77.9941 142.849 77.5142 142.61ZM182.408 72.1429V72.0536V72.1566V72.1429Z" fill="url(#paint0_linear_4_70)"/>
    <path d="M192.259 67.0742C187.94 56.9849 179.176 46.092 172.294 42.6511C177.891 53.2967 181.129 63.9766 182.372 71.9368V72.1429C191.768 96.8201 186.648 121.923 179.276 137.26C167.862 160.989 140.241 185.316 97.0029 184.128C50.3267 182.843 9.17615 149.238 1.49149 105.247C0.0923408 98.3104 1.49149 94.7871 2.19461 89.1552C1.34234 93.489 1.00853 94.7459 0.582397 102.466V102.96C0.582397 156.25 45.1563 199.451 100.142 199.451C149.389 199.451 190.27 164.801 198.281 119.286C198.452 118.049 198.587 116.813 198.736 115.563C200.703 99.011 198.494 81.6209 192.259 67.0742Z" fill="url(#paint1_radial_4_70)"/>
    <path d="M192.259 67.0742C187.94 56.9849 179.176 46.092 172.294 42.6511C177.891 53.2967 181.129 63.9766 182.372 71.9368V72.1429C191.768 96.8201 186.648 121.923 179.276 137.26C167.862 160.989 140.241 185.316 97.0029 184.128C50.3267 182.843 9.17615 149.238 1.49149 105.247C0.0923408 98.3104 1.49149 94.7871 2.19461 89.1552C1.34234 93.489 1.00853 94.7459 0.582397 102.466V102.96C0.582397 156.25 45.1563 199.451 100.142 199.451C149.389 199.451 190.27 164.801 198.281 119.286C198.452 118.049 198.587 116.813 198.736 115.563C200.703 99.011 198.494 81.6209 192.259 67.0742Z" fill="url(#paint2_radial_4_70)"/>
    <path d="M143.878 78.4135L144.496 78.8599C141.998 74.562 138.884 70.6266 135.249 67.1703C104.304 37.1772 127.138 2.12913 130.987 0.350279L131.03 0.295334C106.016 14.4986 97.5355 40.7555 96.7543 53.9011C97.9119 53.8255 99.0696 53.7294 100.249 53.7294C118.913 53.7294 135.17 63.6745 143.878 78.4135Z" fill="url(#paint3_radial_4_70)"/>
    <path d="M100.32 84.4093C100.156 86.8132 91.4062 95.0893 88.3451 95.0893C60.0355 95.0893 55.4403 111.69 55.4403 111.69C56.6832 125.666 66.7329 137.177 78.892 143.269C79.446 143.544 80.0071 143.798 80.5468 144.045C81.5199 144.444 82.5 144.849 83.473 145.206C87.6424 146.63 92.0093 147.44 96.4275 147.61C146.051 149.876 155.668 90.1099 119.858 72.7541C129.02 71.2088 138.537 74.7871 143.864 78.4066C135.156 63.6676 118.892 53.7088 100.227 53.7088C99.0483 53.7088 97.8906 53.8049 96.7329 53.8805C86.7412 54.552 77.1914 58.1234 69.3324 64.1277C70.8522 65.3777 72.571 67.0398 76.1789 70.4876C82.9474 76.9574 100.27 83.6195 100.312 84.4025L100.32 84.4093Z" fill="url(#paint4_radial_4_70)"/>
    <path d="M100.32 84.4093C100.156 86.8132 91.4062 95.0893 88.3451 95.0893C60.0355 95.0893 55.4403 111.69 55.4403 111.69C56.6832 125.666 66.7329 137.177 78.892 143.269C79.446 143.544 80.0071 143.798 80.5468 144.045C81.5199 144.444 82.5 144.849 83.473 145.206C87.6424 146.63 92.0093 147.44 96.4275 147.61C146.051 149.876 155.668 90.1099 119.858 72.7541C129.02 71.2088 138.537 74.7871 143.864 78.4066C135.156 63.6676 118.892 53.7088 100.227 53.7088C99.0483 53.7088 97.8906 53.8049 96.7329 53.8805C86.7412 54.552 77.1914 58.1234 69.3324 64.1277C70.8522 65.3777 72.571 67.0398 76.1789 70.4876C82.9474 76.9574 100.27 83.6195 100.312 84.4025L100.32 84.4093Z" fill="url(#paint5_radial_4_70)"/>
    <path d="M64.7088 60.9203L66.7827 62.2459C64.5122 54.5497 64.4141 46.406 66.4986 38.6607C56.2713 43.18 48.3168 50.3091 42.5355 56.614C43.0043 56.6003 57.4503 56.3462 64.7088 60.9272V60.9203Z" fill="url(#paint6_radial_4_70)"/>
    <path d="M1.49148 105.247C9.17614 149.231 50.3267 182.843 97.0383 184.128C140.277 185.309 167.876 160.989 179.304 137.26C186.676 121.916 191.804 96.8201 182.401 72.136V71.9506C182.401 71.978 182.401 72.0055 182.422 72.1085C185.952 94.4643 174.226 116.113 155.888 130.762C155.87 130.803 155.854 130.844 155.838 130.886C120.107 159.08 85.9162 147.898 78.9915 143.331C78.5051 143.104 78.0221 142.871 77.5426 142.63C56.7116 132.995 48.1037 114.588 49.9503 98.8118C32.3651 98.8118 26.3636 84.43 26.3636 84.43C26.3636 84.43 42.1591 73.5165 62.9687 83.0082C82.2443 91.7995 100.348 84.4368 100.348 84.43C100.312 83.647 82.9901 76.9643 76.2287 70.5151C72.6207 67.0673 70.902 65.4052 69.3892 64.1552C68.5661 63.4827 67.7055 62.8545 66.8111 62.2734C66.2145 61.8681 65.5682 61.4698 64.7372 60.9478C57.4787 56.3736 43.0327 56.6209 42.5568 56.6346H42.5142C38.5653 51.7926 38.8423 35.8036 39.0625 32.4725C39.0199 32.2665 36.1222 33.9286 35.7528 34.1827C32.2727 36.5865 29.0057 39.2926 26.0227 42.2596C22.6159 45.6041 19.5037 49.2179 16.7187 53.0632C10.317 61.8618 5.77907 71.7986 3.36648 82.3008C3.28125 82.4863 -0.255682 97.4794 1.49148 105.247Z" fill="url(#paint7_radial_4_70)"/>
    <path d="M135.249 67.1703C138.885 70.625 141.996 74.5605 144.496 78.8599C145.014 79.2376 145.511 79.6429 145.987 80.0687C168.558 100.206 156.754 128.716 155.859 130.762C174.19 116.12 185.916 94.4712 182.386 72.1154C171.129 44.9039 152.045 33.9286 136.449 10.055C135.668 8.85303 134.872 7.65111 134.105 6.3599C133.713 5.70359 133.348 5.03226 133.011 4.34753C132.332 3.08942 131.812 1.7565 131.463 0.377753C131.422 0.329565 131.364 0.297775 131.3 0.288467C131.239 0.27272 131.176 0.27272 131.115 0.288467C131.097 0.295258 131.08 0.304511 131.065 0.31594C131.044 0.31594 131.016 0.343413 130.994 0.350281C127.138 2.136 104.304 37.1772 135.256 67.1703H135.249Z" fill="url(#paint8_radial_4_70)"/>
    <path d="M145.98 80.0481C145.504 79.621 145.007 79.2176 144.489 78.8393L143.871 78.3929C138.551 74.7802 129.034 71.2019 119.865 72.7473C155.675 90.0962 146.058 149.856 96.4347 147.603C92.0165 147.433 87.6496 146.623 83.4801 145.199C82.4956 144.838 81.5222 144.448 80.5611 144.032C79.9989 143.79 79.4446 143.531 78.8992 143.256L78.9702 143.297C85.8878 147.878 120.078 159.059 155.817 130.852C155.817 130.852 155.831 130.797 155.866 130.728C156.754 128.716 168.558 100.213 145.98 80.0481Z" fill="url(#paint9_radial_4_70)"/>
    <path d="M55.4332 111.683C55.4332 111.683 60.0284 95.0893 88.3452 95.0893C91.3992 95.0893 100.156 86.8063 100.313 84.4093C100.476 82.0055 82.2088 91.7788 62.9332 82.9876C42.1236 73.4959 26.3281 84.4093 26.3281 84.4093C26.3281 84.4093 32.3295 98.7912 49.9077 98.7912C48.0682 114.567 56.6761 132.96 77.5071 142.61C77.9759 142.823 78.4091 143.063 78.8849 143.269C66.7259 137.191 56.6903 125.666 55.4332 111.683Z" fill="url(#paint10_radial_4_70)"/>
    <path d="M192.258 67.0742C187.94 56.9849 179.169 46.092 172.287 42.6511C177.891 53.2967 181.129 63.9767 182.372 71.9368C182.372 71.9368 182.372 71.9986 182.393 72.1017C171.136 44.9039 152.045 33.9354 136.456 10.055C135.66 8.85303 134.872 7.65111 134.105 6.3599C133.712 5.70389 133.347 5.03253 133.011 4.34753C132.331 3.08973 131.811 1.75672 131.463 0.377753C131.422 0.329565 131.364 0.297775 131.3 0.288467C131.239 0.27272 131.176 0.27272 131.115 0.288467C131.097 0.295167 131.08 0.304428 131.065 0.31594C131.044 0.31594 131.016 0.343413 130.994 0.350281L131.037 0.302203C106.023 14.4986 97.5426 40.7555 96.7613 53.9011C97.919 53.8256 99.0767 53.7294 100.256 53.7294C118.92 53.7294 135.178 63.6745 143.885 78.4135C138.565 74.8008 129.041 71.2225 119.879 72.7679C155.689 90.1236 146.072 149.883 96.4488 147.624C92.0306 147.453 87.6639 146.643 83.4943 145.22C82.5074 144.858 81.5317 144.469 80.5682 144.052C80.0082 143.81 79.4563 143.552 78.9133 143.276L78.9844 143.317C78.498 143.093 78.015 142.861 77.5355 142.624C77.9971 142.83 78.4375 143.07 78.9133 143.283C66.7258 137.191 56.6903 125.666 55.4332 111.69C55.4332 111.69 60.0284 95.0893 88.3452 95.0893C91.3991 95.0893 100.156 86.8063 100.312 84.4093C100.277 83.6264 82.9545 76.9437 76.1932 70.4876C72.5852 67.0467 70.8665 65.3846 69.3537 64.1346C68.5307 63.4599 67.67 62.8294 66.7756 62.2459C64.5051 54.5497 64.407 46.406 66.4915 38.6607C56.2642 43.18 48.3096 50.3091 42.5284 56.614H42.4858C38.5369 51.7651 38.8139 35.783 39.0412 32.4451C38.9915 32.239 36.1008 33.908 35.7244 34.1621C32.2443 36.5659 28.9773 39.272 25.9943 42.239C22.5875 45.5835 19.4753 49.1973 16.6903 53.0426C10.2886 61.8412 5.75066 71.778 3.33806 82.2802L3.20312 82.919C3.01846 83.7637 2.17329 88.0701 2.05255 88.9973C2.05255 89.0659 2.05255 88.9286 2.05255 88.9973C1.2784 93.4615 0.781244 97.9533 0.568176 102.466V102.96C0.568176 156.25 45.142 199.451 100.128 199.451C149.375 199.451 190.256 164.801 198.267 119.286C198.437 118.049 198.572 116.813 198.722 115.563C200.703 99.011 198.501 81.6209 192.258 67.0742Z" fill="url(#paint11_linear_4_70)"/>
    <defs>
        <linearGradient id="paint0_linear_4_70" x1="179.084" y1="31.1332" x2="18.7979" y2="190.7" gradientUnits="userSpaceOnUse">
            <stop offset="0.05" stop-color="#FFF44F"/>
            <stop offset="0.11" stop-color="#FFE847"/>
            <stop offset="0.22" stop-color="#FFC830"/>
            <stop offset="0.37" stop-color="#FF980E"/>
            <stop offset="0.4" stop-color="#FF8B16"/>
            <stop offset="0.46" stop-color="#FF672A"/>
            <stop offset="0.53" stop-color="#FF3647"/>
            <stop offset="0.7" stop-color="#E31587"/>
        </linearGradient>
        <radialGradient id="paint1_radial_4_70" cx="0" cy="0" r="1" gradientUnits="userSpaceOnUse" gradientTransform="translate(171.449 22.3832) scale(207.561 201.159)">
            <stop offset="0.13" stop-color="#FFBD4F"/>
            <stop offset="0.19" stop-color="#FFAC31"/>
            <stop offset="0.25" stop-color="#FF9D17"/>
            <stop offset="0.28" stop-color="#FF980E"/>
            <stop offset="0.4" stop-color="#FF563B"/>
            <stop offset="0.47" stop-color="#FF3750"/>
            <stop offset="0.71" stop-color="#F5156C"/>
            <stop offset="0.78" stop-color="#EB0878"/>
            <stop offset="0.86" stop-color="#E50080"/>
        </radialGradient>
        <radialGradient id="paint2_radial_4_70" cx="0" cy="0" r="1" gradientUnits="userSpaceOnUse" gradientTransform="translate(95.5966 104.615) scale(207.561 201.159)">
            <stop offset="0.3" stop-color="#960E18"/>
            <stop offset="0.35" stop-color="#B11927" stop-opacity="0.74"/>
            <stop offset="0.43" stop-color="#DB293D" stop-opacity="0.34"/>
            <stop offset="0.5" stop-color="#F5334B" stop-opacity="0.09"/>
            <stop offset="0.53" stop-color="#FF3750" stop-opacity="0"/>
        </radialGradient>
        <radialGradient id="paint3_radial_4_70" cx="0" cy="0" r="1" gradientUnits="userSpaceOnUse" gradientTransform="translate(120.625 -23.2692) scale(150.369 145.731)">
            <stop offset="0.13" stop-color="#FFF44F"/>
            <stop offset="0.25" stop-color="#FFDC3E"/>
            <stop offset="0.51" stop-color="#FF9D12"/>
            <stop offset="0.53" stop-color="#FF980E"/>
        </radialGradient>
        <radialGradient id="paint4_radial_4_70" cx="0" cy="0" r="1" gradientUnits="userSpaceOnUse" gradientTransform="translate(72.6491 157.163) scale(98.8281 95.7795)">
            <stop offset="0.35" stop-color="#3A8EE6"/>
            <stop offset="0.47" stop-color="#5C79F0"/>
            <stop offset="0.67" stop-color="#9059FF"/>
            <stop offset="1" stop-color="#C139E6"/>
        </radialGradient>
        <radialGradient id="paint5_radial_4_70" cx="0" cy="0" r="1" gradientUnits="userSpaceOnUse" gradientTransform="translate(98.5795 80.7143) rotate(-13.4844) scale(52.2678 59.7175)">
            <stop offset="0.21" stop-color="#9059FF" stop-opacity="0"/>
            <stop offset="0.28" stop-color="#8C4FF3" stop-opacity="0.06"/>
            <stop offset="0.75" stop-color="#7716A8" stop-opacity="0.45"/>
            <stop offset="0.97" stop-color="#6E008B" stop-opacity="0.6"/>
        </radialGradient>
        <radialGradient id="paint6_radial_4_70" cx="0" cy="0" r="1" gradientUnits="userSpaceOnUse" gradientTransform="translate(92.9759 14.1484) scale(71.0994 68.9066)">
            <stop stop-color="#FFE226"/>
            <stop offset="0.12" stop-color="#FFDB27"/>
            <stop offset="0.3" stop-color="#FFC82A"/>
            <stop offset="0.5" stop-color="#FFA930"/>
            <stop offset="0.73" stop-color="#FF7E37"/>
            <stop offset="0.79" stop-color="#FF7139"/>
        </radialGradient>
        <radialGradient id="paint7_radial_4_70" cx="0" cy="0" r="1" gradientUnits="userSpaceOnUse" gradientTransform="translate(148.864 -29.5536) scale(303.344 293.988)">
            <stop offset="0.11" stop-color="#FFF44F"/>
            <stop offset="0.46" stop-color="#FF980E"/>
            <stop offset="0.62" stop-color="#FF5634"/>
            <stop offset="0.72" stop-color="#FF3647"/>
            <stop offset="0.9" stop-color="#E31587"/>
        </radialGradient>
        <radialGradient id="paint8_radial_4_70" cx="0" cy="0" r="1" gradientUnits="userSpaceOnUse" gradientTransform="translate(119.54 2.56872) rotate(84.0502) scale(214.358 145.221)">
            <stop stop-color="#FFF44F"/>
            <stop offset="0.06" stop-color="#FFE847"/>
            <stop offset="0.17" stop-color="#FFC830"/>
            <stop offset="0.3" stop-color="#FF980E"/>
            <stop offset="0.36" stop-color="#FF8B16"/>
            <stop offset="0.45" stop-color="#FF672A"/>
            <stop offset="0.57" stop-color="#FF3647"/>
            <stop offset="0.74" stop-color="#E31587"/>
        </radialGradient>
        <radialGradient id="paint9_radial_4_70" cx="0" cy="0" r="1" gradientUnits="userSpaceOnUse" gradientTransform="translate(91.3068 39.6703) scale(189.378 183.537)">
            <stop offset="0.14" stop-color="#FFF44F"/>
            <stop offset="0.48" stop-color="#FF980E"/>
            <stop offset="0.59" stop-color="#FF5634"/>
            <stop offset="0.66" stop-color="#FF3647"/>
            <stop offset="0.9" stop-color="#E31587"/>
        </radialGradient>
        <radialGradient id="paint10_radial_4_70" cx="0" cy="0" r="1" gradientUnits="userSpaceOnUse" gradientTransform="translate(141.293 50.4121) scale(207.276 200.882)">
            <stop offset="0.09" stop-color="#FFF44F"/>
            <stop offset="0.23" stop-color="#FFE141"/>
            <stop offset="0.51" stop-color="#FFAF1E"/>
            <stop offset="0.63" stop-color="#FF980E"/>
        </radialGradient>
        <linearGradient id="paint11_linear_4_70" x1="177.095" y1="30.3022" x2="40.8637" y2="170.873" gradientUnits="userSpaceOnUse">
            <stop offset="0.17" stop-color="#FFF44F" stop-opacity="0.8"/>
            <stop offset="0.27" stop-color="#FFF44F" stop-opacity="0.63"/>
            <stop offset="0.49" stop-color="#FFF44F" stop-opacity="0.22"/>
            <stop offset="0.6" stop-color="#FFF44F" stop-opacity="0"/>
        </linearGradient>
    </defs>
</svg>
