<svg width="200" height="200" viewBox="0 0 200 200" fill="none" xmlns="http://www.w3.org/2000/svg">
    <path d="M67.294 156.009C56.2642 143.033 49.1974 123.849 48.7287 102.33V97.6704C49.1974 76.1506 56.3423 56.9673 67.294 43.9915C81.5909 25.5043 102.564 17.1946 126.257 17.1946C140.859 17.1946 154.609 18.2031 166.264 25.973C148.206 9.64661 124.735 0.595061 100.391 0.56818H100C45.0781 0.56818 0.568176 45.0781 0.568176 100C0.568176 153.288 42.5142 196.875 95.2628 199.361C96.8182 199.432 98.4446 199.432 100 199.432C124.462 199.485 148.073 190.46 166.264 174.105C154.616 181.875 141.641 182.187 127.031 182.187C103.416 182.259 81.4986 174.574 67.294 156.009Z" fill="url(#paint0_linear_4_21)"/>
    <path d="M67.3012 43.9915C76.3921 33.196 88.1961 26.7472 101.087 26.7472C130.064 26.7472 153.523 59.5312 153.523 100.078C153.523 140.632 130.064 173.409 101.087 173.409C88.1961 173.409 76.4631 166.882 67.3012 156.165C81.5909 174.652 102.798 186.463 126.413 186.463C140.938 186.463 154.609 182.031 166.257 174.261C186.619 155.937 199.432 129.446 199.432 100C199.432 70.5611 186.612 44.0696 166.264 25.8949C154.49 17.9559 140.614 13.71 126.413 13.7003C102.72 13.7003 81.5199 25.4261 67.3012 43.9915Z" fill="url(#paint1_linear_4_21)"/>
    <defs>
        <linearGradient id="paint0_linear_4_21" x1="83.4162" y1="3.80682" x2="83.4162" y2="196.541" gradientUnits="userSpaceOnUse">
            <stop offset="0.3" stop-color="#FF1B2D"/>
            <stop offset="0.438" stop-color="#FA1A2C"/>
            <stop offset="0.594" stop-color="#ED1528"/>
            <stop offset="0.758" stop-color="#D60E21"/>
            <stop offset="0.927" stop-color="#B70519"/>
            <stop offset="1" stop-color="#A70014"/>
        </linearGradient>
        <linearGradient id="paint1_linear_4_21" x1="133.352" y1="15.1705" x2="133.352" y2="185.632" gradientUnits="userSpaceOnUse">
            <stop stop-color="#9C0000"/>
            <stop offset="0.7" stop-color="#FF4B4B"/>
        </linearGradient>
    </defs>
</svg>
