<svg width="200" height="200" viewBox="0 0 200 200" fill="none" xmlns="http://www.w3.org/2000/svg">
    <path d="M100 200C155.228 200 200 155.228 200 100C200 44.7715 155.228 0 100 0C44.7715 0 0 44.7715 0 100C0 155.228 44.7715 200 100 200Z" fill="#01BBEB"/>
    <path d="M168.304 31.25L91.5179 91.5179L109.375 109.375L168.304 31.25Z" fill="#FF0000"/>
    <path d="M31.25 168.304L91.5179 91.5179L109.375 109.375L31.25 168.304Z" fill="white"/>
    <path d="M100 9.82144V24.5536ZM100 175V189.732ZM115.625 11.1607L113.08 25.6697ZM86.9196 173.795L84.375 188.393ZM130.804 15.2679L125.759 29.1072ZM74.2857 170.446L69.241 184.286ZM84.375 11.1607L86.9196 25.6697ZM113.08 173.795L115.625 188.393ZM69.1964 15.2679L74.241 29.1072ZM125.67 170.446L130.714 184.286ZM55 21.875L62.4107 34.6429ZM137.634 164.911L145 177.679ZM42.1875 30.8036L51.6518 42.0982ZM148.348 157.366L157.812 168.661ZM31.0268 41.875L42.3214 51.3393ZM157.589 148.125L168.884 157.589ZM22.0089 54.8214L34.7768 62.1875ZM165.134 137.411L177.902 144.777ZM15.4018 69.0179L29.241 74.0625ZM170.58 125.402L184.42 130.446ZM11.3393 84.0179L25.8928 86.6072ZM174.107 112.857L188.616 115.402ZM10.0446 99.7768H24.7768ZM175.223 99.7768H189.955ZM11.3839 115.402L25.8928 112.857ZM174.107 86.6964L188.616 84.1518ZM15.5357 130.58L29.375 125.536ZM170.67 74.1072L184.509 69.0625ZM22.0982 144.777L34.866 137.411ZM165.223 62.1875L177.991 54.8214ZM31.0714 157.589L42.366 148.125ZM157.545 51.4286L168.839 41.9643ZM42.0535 168.75L51.5178 157.455ZM148.214 42.1875L157.679 30.8929ZM55 177.679L62.4107 164.911ZM137.634 34.6429L145 21.875ZM92.1428 10.1786L92.8571 18.2143ZM107.143 181.429L107.857 189.464ZM76.6964 12.9464L78.7946 20.7143ZM121.205 178.929L123.304 186.696ZM61.9643 18.3036L65.3571 25.5804ZM134.554 174.063L137.991 181.339ZM48.3928 26.0714L52.991 32.6786ZM147.009 166.875L151.607 173.482ZM36.3839 36.1607L42.0535 41.8304ZM157.946 157.723L163.616 163.393ZM26.3393 48.2143L32.9464 52.8125ZM167.143 146.875L173.661 151.339ZM18.4821 61.7411L25.7589 65.1339ZM174.241 134.33L181.518 137.768ZM13.125 76.4732L20.8928 78.5714ZM179.107 120.982L186.875 123.08ZM10.4018 91.9643L18.4375 92.6786ZM181.652 106.964L189.687 107.679ZM10.491 107.679L18.5268 106.964ZM181.741 92.6786L189.777 91.9643ZM13.125 123.08L20.8928 120.982ZM179.107 78.5714L186.875 76.4732ZM18.4821 137.813L25.7589 134.42ZM174.241 65.2232L181.518 61.8304ZM26.3393 151.339L32.9464 146.741ZM167.143 52.6786L173.661 48.2143ZM48.3928 173.482L52.991 166.875ZM146.964 32.6786L151.607 26.0714ZM61.9643 181.25L65.4018 173.973ZM134.598 25.4464L138.036 18.1697ZM76.6964 186.607L78.7946 178.839ZM121.205 20.625L123.304 12.8572ZM92.1428 189.286L92.8571 181.25ZM107.143 18.0357L107.857 10Z" fill="black"/>
    <path d="M100 9.82144V24.5536M100 175V189.732M115.625 11.1607L113.08 25.6697M86.9196 173.795L84.375 188.393M130.804 15.2679L125.759 29.1072M74.2857 170.446L69.241 184.286M84.375 11.1607L86.9196 25.6697M113.08 173.795L115.625 188.393M69.1964 15.2679L74.241 29.1072M125.67 170.446L130.714 184.286M55 21.875L62.4107 34.6429M137.634 164.911L145 177.679M42.1875 30.8036L51.6518 42.0982M148.348 157.366L157.812 168.661M31.0268 41.875L42.3214 51.3393M157.589 148.125L168.884 157.589M22.0089 54.8214L34.7768 62.1875M165.134 137.411L177.902 144.777M15.4018 69.0179L29.241 74.0625M170.58 125.402L184.42 130.446M11.3393 84.0179L25.8928 86.6072M174.107 112.857L188.616 115.402M10.0446 99.7768H24.7768M175.223 99.7768H189.955M11.3839 115.402L25.8928 112.857M174.107 86.6964L188.616 84.1518M15.5357 130.58L29.375 125.536M170.67 74.1072L184.509 69.0625M22.0982 144.777L34.866 137.411M165.223 62.1875L177.991 54.8214M31.0714 157.589L42.366 148.125M157.545 51.4286L168.839 41.9643M42.0535 168.75L51.5178 157.455M148.214 42.1875L157.679 30.8929M55 177.679L62.4107 164.911M137.634 34.6429L145 21.875M92.1428 10.1786L92.8571 18.2143M107.143 181.429L107.857 189.464M76.6964 12.9464L78.7946 20.7143M121.205 178.929L123.304 186.696M61.9643 18.3036L65.3571 25.5804M134.554 174.063L137.991 181.339M48.3928 26.0714L52.991 32.6786M147.009 166.875L151.607 173.482M36.3839 36.1607L42.0535 41.8304M157.946 157.723L163.616 163.393M26.3393 48.2143L32.9464 52.8125M167.143 146.875L173.661 151.339M18.4821 61.7411L25.7589 65.1339M174.241 134.33L181.518 137.768M13.125 76.4732L20.8928 78.5714M179.107 120.982L186.875 123.08M10.4018 91.9643L18.4375 92.6786M181.652 106.964L189.687 107.679M10.491 107.679L18.5268 106.964M181.741 92.6786L189.777 91.9643M13.125 123.08L20.8928 120.982M179.107 78.5714L186.875 76.4732M18.4821 137.813L25.7589 134.42M174.241 65.2232L181.518 61.8304M26.3393 151.339L32.9464 146.741M167.143 52.6786L173.661 48.2143M48.3928 173.482L52.991 166.875M146.964 32.6786L151.607 26.0714M61.9643 181.25L65.4018 173.973M134.598 25.4464L138.036 18.1697M76.6964 186.607L78.7946 178.839M121.205 20.625L123.304 12.8572M92.1428 189.286L92.8571 181.25M107.143 18.0357L107.857 10" stroke="white" stroke-width="1.33929"/>
</svg>
